<svg xmlns="http://www.w3.org/2000/svg" viewBox="0 0 1024 1024">
  <defs>
    <linearGradient id="bg" x1="156" y1="96" x2="868" y2="928" gradientUnits="userSpaceOnUse">
      <stop offset="0" stop-color="#1B2A6B"/>
      <stop offset="0.52" stop-color="#116A73"/>
      <stop offset="1" stop-color="#101827"/>
    </linearGradient>

    <linearGradient id="sheet" x1="352" y1="228" x2="696" y2="792" gradientUnits="userSpaceOnUse">
      <stop offset="0" stop-color="#FFF8DF"/>
      <stop offset="0.58" stop-color="#F6FCFF"/>
      <stop offset="1" stop-color="#DDF8F4"/>
    </linearGradient>

    <linearGradient id="pencil" x1="306" y1="704" x2="706" y2="386" gradientUnits="userSpaceOnUse">
      <stop offset="0" stop-color="#FEE272"/>
      <stop offset="0.55" stop-color="#F4A94A"/>
      <stop offset="1" stop-color="#EF5D53"/>
    </linearGradient>

    <filter id="shadow" x="-20%" y="-20%" width="140%" height="140%" color-interpolation-filters="sRGB">
      <feDropShadow dx="0" dy="26" stdDeviation="28" flood-color="#020817" flood-opacity="0.42"/>
      <feDropShadow dx="0" dy="-8" stdDeviation="16" flood-color="#8BF8FF" flood-opacity="0.10"/>
    </filter>

    <filter id="softShadow" x="-20%" y="-20%" width="140%" height="140%" color-interpolation-filters="sRGB">
      <feDropShadow dx="0" dy="18" stdDeviation="18" flood-color="#07111F" flood-opacity="0.28"/>
    </filter>

    <filter id="glow" x="-80%" y="-80%" width="260%" height="260%" color-interpolation-filters="sRGB">
      <feGaussianBlur stdDeviation="9" result="blur"/>
      <feColorMatrix in="blur" type="matrix" values="0 0 0 0 0.14  0 0 0 0 0.95  0 0 0 0 1.00  0 0 0 0.65 0"/>
      <feMerge>
        <feMergeNode/>
        <feMergeNode in="SourceGraphic"/>
      </feMerge>
    </filter>

    <clipPath id="tileClip">
      <rect x="72" y="72" width="880" height="880" rx="212"/>
    </clipPath>
  </defs>

  <rect width="1024" height="1024" fill="none"/>

  <g filter="url(#shadow)">
    <rect x="72" y="72" width="880" height="880" rx="212" fill="url(#bg)"/>
  </g>

  <g clip-path="url(#tileClip)">
    <circle cx="322" cy="234" r="236" fill="#54F5FF" opacity="0.13"/>
    <circle cx="760" cy="770" r="272" fill="#F7C65A" opacity="0.10"/>

    <g fill="none" stroke="#48F4FF" stroke-width="9" stroke-linecap="round" stroke-linejoin="round" filter="url(#glow)" opacity="0.88">
      <path d="M202 336 H302 C342 336 356 376 394 376"/>
      <path d="M820 360 H716 C676 360 656 406 620 406"/>
      <path d="M220 704 H326 C364 704 382 664 420 664"/>
      <path d="M798 682 H700 C662 682 638 642 602 642"/>
    </g>

    <g fill="#48F4FF" filter="url(#glow)">
      <circle cx="202" cy="336" r="15"/>
      <circle cx="820" cy="360" r="15"/>
      <circle cx="220" cy="704" r="14"/>
      <circle cx="798" cy="682" r="14"/>
    </g>

    <g filter="url(#softShadow)">
      <path d="M342 210 H626 L758 342 V760 C758 802 724 836 682 836 H342 C300 836 266 802 266 760 V286 C266 244 300 210 342 210Z" fill="url(#sheet)"/>
      <path d="M626 210 V302 C626 324 644 342 666 342 H758" fill="#D7F2F4"/>
      <path d="M626 210 V302 C626 324 644 342 666 342 H758" fill="none" stroke="#B4D6D8" stroke-width="10" stroke-linejoin="round"/>
      <path d="M342 210 H626 L758 342 V760 C758 802 724 836 682 836 H342 C300 836 266 802 266 760 V286 C266 244 300 210 342 210Z" fill="none" stroke="#FFFFFF" stroke-width="10" opacity="0.72"/>
    </g>

    <g fill="none" stroke="#19365D" stroke-linecap="round" opacity="0.18">
      <path d="M360 438 H664" stroke-width="22"/>
      <path d="M360 526 H618" stroke-width="22"/>
      <path d="M360 614 H548" stroke-width="22"/>
    </g>

    <g transform="translate(342 690)">
      <circle cx="20" cy="20" r="20" fill="none" stroke="#1B3B62" stroke-width="10" opacity="0.28"/>
      <circle cx="92" cy="20" r="20" fill="none" stroke="#1B3B62" stroke-width="10" opacity="0.28"/>
      <circle cx="164" cy="20" r="20" fill="none" stroke="#1B3B62" stroke-width="10" opacity="0.28"/>
      <circle cx="236" cy="20" r="20" fill="none" stroke="#1B3B62" stroke-width="10" opacity="0.28"/>
      <circle cx="92" cy="20" r="12" fill="#F4B548"/>
    </g>

    <g filter="url(#softShadow)">
      <path d="M326 664 L642 348 C662 328 694 328 714 348 L736 370 C756 390 756 422 736 442 L420 758 L318 766 L326 664Z" fill="url(#pencil)"/>
      <path d="M326 664 L420 758 L318 766 Z" fill="#FFF0B8"/>
      <path d="M318 766 L352 732 L378 758 Z" fill="#172033"/>
      <path d="M642 348 L736 442" stroke="#FFE6A2" stroke-width="28" stroke-linecap="round" opacity="0.62"/>
      <path d="M326 664 L642 348 C662 328 694 328 714 348 L736 370 C756 390 756 422 736 442 L420 758 L318 766 L326 664Z" fill="none" stroke="#172B47" stroke-width="12" opacity="0.16" stroke-linejoin="round"/>
    </g>

    <g fill="none" stroke="#48F4FF" stroke-width="9" stroke-linecap="round" stroke-linejoin="round" filter="url(#glow)">
      <path d="M610 520 C664 516 704 548 726 598"/>
      <path d="M486 292 C522 268 568 270 604 296"/>
    </g>

    <g fill="#48F4FF" filter="url(#glow)">
      <circle cx="726" cy="598" r="13"/>
      <circle cx="486" cy="292" r="10"/>
      <circle cx="604" cy="296" r="10"/>
    </g>

    <rect x="108" y="108" width="808" height="808" rx="178" fill="none" stroke="#FFFFFF" stroke-width="3" opacity="0.13"/>
  </g>
</svg>
